<svg xmlns="http://www.w3.org/2000/svg" viewBox="0 0 1000 160" role="img" aria-labelledby="title desc" shape-rendering="geometricPrecision">
  <title id="title">Maricopa Consolidated Domestic Water Improvement District</title>
  <desc id="desc">Horizontal logo with an MC monogram forming a geometric water droplet.</desc>
  <defs>
    <mask id="v3-lockup-m" maskUnits="userSpaceOnUse" x="0" y="0" width="140" height="170">
      <rect width="140" height="170" fill="#000"/>
      <path d="M70 8C49 37 25 66 22 100h96C115 66 91 37 70 8Z" fill="#fff"/>
      <path d="m37 99 7-51 26 31 26-31 7 51H88l-3-25-15 19-15-19-3 25Z" fill="#000"/>
    </mask>
  </defs>
  <g transform="translate(10 -2) scale(.92)">
    <path d="M70 8C49 37 25 66 22 100h96C115 66 91 37 70 8Z" fill="#14233D" mask="url(#v3-lockup-m)"/>
    <path d="M110 105c-9-13-23-20-40-20-28 0-49 17-49 39s21 39 49 39c18 0 33-7 42-21l-17-9c-5 8-14 13-25 13-17 0-29-9-29-22s12-22 29-22c10 0 19 4 24 11Z" fill="#2D70B7"/>
    <path d="M33 111c16-8 28-5 41 1 13 6 24 7 38 1" fill="none" stroke="#14233D" stroke-width="7" stroke-linecap="round"/>
  </g>
  <text x="160" y="72" fill="#14233D" font-family="Georgia, 'Times New Roman', serif" font-size="48" font-weight="700" textLength="605" lengthAdjust="spacingAndGlyphs">Maricopa Consolidated</text>
  <text x="162" y="111" fill="#5F708C" font-family="Arial, 'Helvetica Neue', sans-serif" font-size="21" letter-spacing=".8" textLength="510" lengthAdjust="spacingAndGlyphs">Domestic Water Improvement District</text>
</svg>
