<svg xmlns="http://www.w3.org/2000/svg" viewBox="0 0 2045 500" role="img" aria-labelledby="title desc" shape-rendering="geometricPrecision">
  <title id="title">Maricopa Consolidated Domestic Water Improvement District — V10, monochrome</title>
  <desc id="desc">Single-color production version of the reference-matched artwork.</desc>
  <path fill="#0D1F3D" fill-rule="evenodd" d="M416 260 L420 245 L428 231 L441 218 L460 207 L481 200 L510 196 L540 196 L558 198 L557 186 L552 176 L545 170 L531 165 L509 164 L494 166 L461 178 L433 141 L433 137 L435 137 L444 128 L458 119 L476 111 L502 105 L545 104 L562 106 L589 114 L606 124 L620 138 L626 150 L628 151 L634 168 L638 198 L637 339 L562 339 L561 323 L556 328 L544 335 L517 343 L490 344 L472 341 L460 337 L442 327 L426 310 L418 293 L416 283 Z M1810 263 L1814 246 L1823 230 L1841 214 L1857 206 L1881 199 L1906 196 L1935 196 L1953 198 L1952 186 L1946 175 L1938 169 L1926 165 L1894 165 L1871 171 L1856 179 L1827 140 L1828 136 L1830 136 L1833 132 L1849 121 L1868 112 L1895 105 L1950 105 L1966 108 L1993 119 L2002 125 L2014 137 L2020 146 L2027 162 L2032 186 L2032 340 L1957 340 L1956 324 L1935 337 L1913 343 L1885 344 L1857 338 L1841 330 L1839 327 L1833 324 L1819 307 L1811 286 Z M1057 212 L1061 189 L1073 161 L1081 149 L1085 146 L1085 144 L1110 123 L1142 109 L1171 104 L1193 104 L1209 106 L1233 113 L1258 127 L1273 141 L1273 144 L1271 144 L1254 162 L1252 162 L1229 186 L1226 186 L1225 183 L1222 182 L1219 178 L1208 172 L1191 168 L1174 169 L1156 176 L1144 188 L1137 202 L1134 221 L1135 238 L1144 260 L1153 270 L1163 276 L1178 280 L1195 280 L1213 274 L1219 270 L1228 260 L1231 260 L1249 278 L1258 284 L1273 299 L1275 299 L1277 304 L1261 319 L1247 328 L1234 334 L1208 341 L1192 343 L1164 342 L1142 338 L1128 333 L1113 326 L1097 315 L1081 299 L1072 286 L1065 272 L1059 252 L1057 239 Z M12 17 L14 15 L113 15 L200 170 L285 15 L381 14 L383 39 L384 339 L289 339 L289 164 L253 226 L251 227 L244 242 L236 253 L234 259 L218 284 L202 314 L195 313 L183 290 L171 272 L169 266 L157 248 L155 242 L151 238 L145 225 L140 219 L133 204 L129 200 L119 180 L108 164 L108 339 L13 339 Z M1629 189 L1629 263 L1641 274 L1661 281 L1679 281 L1690 278 L1700 272 L1708 264 L1713 255 L1719 233 L1719 215 L1717 204 L1711 190 L1704 183 L1704 181 L1696 175 L1684 170 L1663 169 L1646 174 L1637 180 Z M671 298 L674 130 L676 106 L885 106 L906 111 L915 117 L922 125 L929 143 L930 163 L784 163 L766 169 L756 178 L751 188 L749 199 L749 340 L672 340 Z M494 264 L496 280 L502 287 L509 291 L518 293 L536 292 L550 286 L558 279 L559 246 L545 243 L517 244 L503 250 L496 258 Z M954 111 L1032 111 L1032 340 L954 339 Z M1277 213 L1281 190 L1291 165 L1305 145 L1307 145 L1307 143 L1320 131 L1338 119 L1363 109 L1383 105 L1416 104 L1436 107 L1459 114 L1484 128 L1501 143 L1517 166 L1527 192 L1530 208 L1530 239 L1525 263 L1517 282 L1504 301 L1485 319 L1462 332 L1440 339 L1422 342 L1386 342 L1363 338 L1341 330 L1320 317 L1305 303 L1305 301 L1294 288 L1284 268 L1278 243 Z M948 46 L955 29 L964 20 L979 13 L1001 13 L1013 18 L1023 27 L1027 33 L1031 43 L1031 61 L1026 74 L1013 87 L997 93 L984 93 L970 89 L957 79 L951 70 L948 61 Z M1552 111 L1627 110 L1629 132 L1629 130 L1637 123 L1658 111 L1676 106 L1704 105 L1728 110 L1743 117 L1752 123 L1755 127 L1757 127 L1769 139 L1773 147 L1778 152 L1786 168 L1793 190 L1796 211 L1796 238 L1791 266 L1780 292 L1772 304 L1768 307 L1768 309 L1756 321 L1754 321 L1751 325 L1742 331 L1723 339 L1702 343 L1687 343 L1667 340 L1645 331 L1629 319 L1629 390 L1552 390 Z M1889 263 L1890 279 L1898 288 L1913 293 L1933 291 L1946 285 L1954 278 L1954 246 L1951 244 L1940 243 L1912 244 L1895 252 Z M1355 216 L1356 240 L1361 256 L1367 265 L1376 274 L1386 279 L1393 281 L1414 281 L1426 277 L1439 267 L1449 250 L1453 229 L1452 212 L1449 199 L1440 183 L1434 177 L1421 170 L1412 168 L1395 168 L1386 170 L1376 175 L1362 191 L1357 204 Z"/>
  <path fill="#0D1F3D" fill-rule="evenodd" d="M686 84 L690 80 L759 80 L763 84 L764 93 L763 96 L759 99 L690 99 L686 96 Z M880 217 L890 198 L902 182 L903 178 L906 174 L908 174 L931 210 L934 219 L934 228 L928 241 L920 247 L914 249 L901 249 L891 245 L883 237 L880 230 Z"/>
  <path fill="#0D1F3D" fill-rule="evenodd" d="M1257 429 L1267 429 L1268 434 L1275 428 L1283 428 L1288 430 L1291 435 L1297 429 L1311 429 L1315 432 L1318 438 L1318 469 L1308 469 L1308 443 L1307 440 L1303 437 L1297 438 L1293 445 L1293 469 L1282 468 L1282 441 L1277 437 L1272 438 L1268 443 L1268 469 L1257 469 Z M1380 440 L1381 429 L1391 429 L1392 434 L1392 432 L1396 429 L1406 428 L1406 438 L1398 438 L1392 442 L1391 469 L1380 468 Z M126 458 L127 429 L136 429 L137 434 L139 431 L145 428 L153 428 L161 432 L164 439 L164 469 L153 469 L153 442 L150 438 L147 437 L141 438 L138 442 L137 469 L127 469 Z M441 443 L444 437 L454 429 L471 429 L479 436 L481 440 L482 452 L452 452 L451 454 L458 461 L464 462 L473 456 L478 461 L480 461 L480 463 L469 470 L457 470 L451 468 L442 458 Z M630 445 L634 436 L641 430 L647 428 L656 428 L666 432 L670 436 L674 444 L674 454 L669 463 L661 469 L646 470 L636 465 L632 460 L630 454 Z M289 414 L293 410 L298 410 L302 413 L302 420 L299 423 L292 423 L289 420 Z M584 421 L584 459 L600 458 L607 454 L611 449 L611 430 L606 424 L602 422 Z M1234 411 L1246 411 L1245 469 L1234 469 Z M1841 462 L1844 461 L1844 459 L1847 457 L1855 462 L1860 462 L1863 460 L1863 456 L1861 454 L1850 452 L1843 447 L1842 439 L1847 431 L1861 428 L1868 430 L1873 434 L1866 441 L1861 437 L1853 438 L1854 443 L1867 446 L1873 451 L1874 461 L1870 467 L1862 470 L1851 470 L1844 467 Z M1496 446 L1500 436 L1504 432 L1514 428 L1525 429 L1534 436 L1537 444 L1537 453 L1507 453 L1507 455 L1513 461 L1522 461 L1527 456 L1529 456 L1532 460 L1535 461 L1535 463 L1531 467 L1524 470 L1509 469 L1499 461 L1497 457 Z M1876 429 L1884 429 L1884 418 L1894 418 L1894 429 L1905 429 L1905 438 L1894 438 L1894 457 L1898 461 L1905 460 L1905 469 L1891 470 L1886 467 L1884 463 L1884 438 L1876 438 Z M15 433 L21 420 L33 411 L54 410 L59 412 L66 418 L66 420 L59 426 L57 426 L57 424 L51 420 L40 420 L35 422 L30 427 L27 434 L27 446 L31 454 L37 459 L50 460 L55 458 L60 453 L66 459 L68 459 L68 461 L61 467 L53 470 L37 470 L28 466 L19 458 L16 451 Z M1453 429 L1465 430 L1474 455 L1484 429 L1495 429 L1494 435 L1489 444 L1480 469 L1468 469 L1461 449 L1457 443 Z M1042 453 L1049 446 L1057 444 L1069 444 L1068 439 L1064 436 L1057 436 L1049 441 L1044 435 L1045 433 L1057 428 L1070 429 L1077 434 L1079 439 L1080 468 L1070 469 L1068 465 L1066 468 L1061 470 L1049 469 L1042 463 Z M1170 429 L1180 429 L1182 433 L1188 428 L1196 428 L1196 438 L1187 438 L1181 444 L1181 469 L1170 469 Z M1824 429 L1834 429 L1834 469 L1824 469 Z M1612 446 L1616 436 L1623 430 L1630 428 L1642 429 L1650 435 L1653 442 L1654 451 L1652 453 L1624 452 L1624 456 L1630 461 L1638 461 L1643 456 L1645 456 L1652 462 L1643 469 L1625 469 L1615 461 L1612 452 Z M212 443 L214 438 L225 429 L243 429 L250 433 L254 438 L256 443 L256 455 L254 460 L243 469 L225 469 L217 464 L217 462 L214 460 L212 455 Z M572 411 L600 411 L610 414 L615 419 L617 419 L624 433 L624 447 L619 458 L615 462 L609 466 L599 469 L572 468 Z M363 453 L370 446 L378 444 L390 444 L389 438 L385 436 L379 436 L370 441 L369 438 L365 435 L366 433 L378 428 L388 428 L394 430 L400 438 L400 469 L391 469 L391 465 L389 465 L389 467 L383 470 L372 470 L364 464 Z M1702 429 L1710 429 L1710 418 L1720 418 L1720 429 L1731 429 L1731 438 L1720 438 L1720 457 L1725 461 L1731 460 L1731 469 L1718 470 L1711 465 L1710 438 L1702 438 Z M1764 412 L1795 412 L1803 415 L1812 423 L1816 432 L1816 447 L1812 457 L1807 462 L1792 469 L1764 468 Z M891 443 L894 437 L902 430 L908 428 L917 428 L925 431 L928 435 L922 441 L919 441 L914 437 L907 438 L902 444 L902 454 L906 459 L912 461 L922 457 L927 465 L919 470 L907 470 L900 467 L892 458 Z M488 444 L492 435 L500 429 L512 428 L521 433 L521 408 L532 409 L531 469 L521 469 L521 465 L512 470 L503 470 L496 467 L490 460 L488 454 Z M499 444 L499 454 L502 458 L512 461 L520 456 L521 445 L517 439 L508 437 L503 439 Z M1419 445 L1420 455 L1425 460 L1436 460 L1441 454 L1441 444 L1436 438 L1425 438 Z M1120 442 L1125 434 L1133 429 L1150 429 L1158 436 L1160 440 L1161 452 L1131 452 L1131 455 L1137 461 L1146 461 L1151 456 L1153 456 L1159 461 L1159 463 L1147 470 L1135 470 L1129 467 L1121 459 Z M172 463 L178 457 L187 462 L191 462 L195 459 L194 455 L181 452 L175 448 L173 443 L175 434 L185 428 L194 428 L202 431 L204 435 L198 441 L194 437 L185 437 L184 442 L201 447 L206 455 L205 463 L200 468 L194 470 L182 470 L175 467 Z M1329 429 L1339 429 L1340 434 L1345 429 L1357 428 L1364 431 L1372 442 L1372 455 L1369 462 L1364 467 L1357 470 L1349 470 L1343 468 L1340 465 L1340 487 L1338 488 L1329 487 Z M682 429 L692 429 L693 434 L693 432 L697 429 L707 428 L714 431 L715 435 L724 428 L732 428 L739 431 L743 438 L743 469 L732 468 L732 441 L727 437 L722 438 L718 443 L718 469 L707 469 L707 442 L704 438 L701 437 L696 438 L693 442 L692 469 L682 469 Z M84 445 L84 453 L88 459 L97 461 L104 457 L106 452 L106 445 L102 439 L93 437 L88 439 Z M871 429 L882 429 L881 469 L871 469 Z M1084 429 L1092 429 L1092 418 L1103 418 L1103 429 L1114 429 L1114 438 L1103 438 L1103 458 L1106 461 L1114 460 L1114 469 L1100 470 L1093 465 L1092 438 L1084 438 Z M290 429 L301 429 L301 469 L290 469 Z M832 430 L841 429 L841 418 L851 418 L851 429 L862 429 L862 438 L851 439 L851 457 L854 461 L862 460 L862 469 L848 470 L842 465 L841 438 L833 438 Z M1408 445 L1412 436 L1416 432 L1426 428 L1435 428 L1443 431 L1446 435 L1448 435 L1452 442 L1453 450 L1451 458 L1446 465 L1439 469 L1426 470 L1417 467 L1411 461 L1408 453 Z M1544 430 L1554 429 L1555 434 L1560 429 L1569 428 L1576 431 L1578 435 L1581 431 L1587 428 L1594 428 L1599 430 L1605 438 L1606 468 L1595 469 L1594 441 L1592 438 L1587 437 L1584 438 L1580 444 L1580 469 L1570 469 L1569 441 L1568 439 L1562 437 L1557 439 L1555 442 L1555 468 L1544 469 Z M751 444 L753 438 L759 432 L769 428 L780 429 L789 436 L792 444 L792 453 L762 452 L762 455 L769 461 L776 461 L784 456 L790 462 L781 469 L764 469 L757 465 L753 460 L751 455 Z M311 444 L315 435 L323 429 L335 428 L344 433 L344 408 L355 408 L354 469 L345 469 L345 464 L336 470 L326 470 L319 467 L312 457 Z M1943 415 L1946 411 L1954 411 L1956 413 L1956 421 L1953 423 L1947 423 L1944 421 Z M1776 421 L1776 459 L1789 459 L1797 456 L1804 447 L1805 437 L1803 430 L1796 423 L1788 421 Z M960 411 L972 411 L982 450 L995 411 L1007 411 L1018 451 L1030 411 L1041 411 L1025 468 L1013 469 L1003 432 L1000 427 L988 469 L977 469 L965 432 L964 424 L961 419 Z M265 452 L266 408 L276 408 L276 459 L281 460 L281 469 L270 469 L266 466 Z M2001 430 L2009 429 L2009 418 L2020 418 L2020 429 L2030 429 L2030 438 L2020 438 L2020 459 L2023 461 L2031 460 L2030 469 L2018 470 L2011 466 L2009 461 L2009 438 L2001 438 Z M374 455 L375 461 L384 462 L390 457 L390 451 L381 451 Z M797 462 L802 457 L812 462 L819 460 L818 455 L806 452 L799 447 L798 437 L800 433 L809 428 L819 428 L826 431 L828 436 L826 436 L823 440 L821 440 L819 437 L812 436 L808 439 L808 441 L810 443 L823 446 L828 450 L830 455 L829 463 L824 468 L818 470 L807 470 L798 466 Z M406 429 L414 429 L414 418 L425 419 L424 429 L435 429 L435 438 L425 438 L425 459 L428 461 L435 460 L435 469 L422 470 L415 465 L413 443 L414 438 L406 438 Z M1624 442 L1624 445 L1643 445 L1642 440 L1636 436 L1628 437 Z M1944 430 L1955 429 L1955 469 L1944 468 Z M73 444 L76 437 L82 431 L90 428 L100 428 L106 430 L114 437 L117 444 L117 455 L114 461 L108 467 L102 470 L90 470 L82 467 L76 461 L73 454 Z M1552 390 L1629 390 L1629 395 L1553 396 Z M1964 443 L1966 438 L1975 430 L1988 428 L1997 431 L2000 436 L1994 441 L1989 438 L1981 438 L1977 441 L1975 445 L1975 454 L1981 460 L1990 460 L1994 457 L2000 464 L1996 468 L1990 470 L1980 470 L1971 466 L1967 462 L1964 455 Z M1660 434 L1661 429 L1670 429 L1671 434 L1680 428 L1691 430 L1697 439 L1697 469 L1686 468 L1686 441 L1681 437 L1674 439 L1671 445 L1671 469 L1661 469 Z M223 444 L223 453 L227 459 L235 461 L243 457 L245 453 L245 444 L241 439 L232 437 L227 439 Z M641 445 L642 456 L647 460 L654 461 L662 455 L663 445 L657 438 L647 438 Z M1913 429 L1923 429 L1923 434 L1931 428 L1938 428 L1939 430 L1938 439 L1930 438 L1924 443 L1923 469 L1913 469 Z M1052 456 L1054 461 L1062 462 L1068 458 L1069 451 L1056 452 Z M1340 445 L1340 454 L1344 459 L1352 461 L1356 460 L1360 456 L1361 445 L1357 439 L1346 438 L1341 442 Z M1131 442 L1131 445 L1150 445 L1149 439 L1145 436 L1135 437 Z M452 442 L452 445 L471 445 L470 439 L466 436 L459 436 Z M762 442 L762 445 L781 445 L780 439 L776 436 L769 436 Z M1507 443 L1507 445 L1527 445 L1525 439 L1520 436 L1514 436 L1510 438 Z M322 444 L322 452 L325 458 L335 461 L342 457 L344 452 L344 445 L340 439 L336 437 L330 437 Z M1823 414 L1826 411 L1833 411 L1836 414 L1836 420 L1832 423 L1826 423 L1823 420 Z M870 414 L872 411 L878 410 L883 414 L883 418 L879 423 L873 423 L870 420 Z"/>
</svg>
